<svg viewBox="0 0 64 64" xmlns="http://www.w3.org/2000/svg"><path d="M59.935 24.436a1.05 1.05 0 0 0-.228-.373L39.959 4.315a1.003 1.003 0 0 0-.988-.28l-27 7.23a1.043 1.043 0 0 0-.707.706l-7.23 27a1.039 1.039 0 0 0 .27.978l19.757 19.756a1.025 1.025 0 0 0 .968.26l18.4-4.929a1 1 0 0 0-.518-1.932l-14.795 3.964L47.074 38.11l3.47 12.947-2.803.752a1 1 0 0 0 .518 1.931l3.672-.983a1.035 1.035 0 0 0 .692-.472c.374-.352 7.094-26.898 7.343-27.256a.955.955 0 0 0-.031-.593Zm-41.73 13.943 4.632 17.274-16.421-16.42 9.478-9.478 1.017 3.796a1 1 0 0 0 1.932-.518l-1.017-3.796 27.834 7.458-20.373 20.373-5.151-19.207a1 1 0 0 0-1.932.518Zm-5.973-22.291 3.064 11.436-8.367 8.367Zm1.226-3.152L35.892 6.93 16.929 25.891Zm28.446 5.883 4.273 15.945-27.834-7.458L38.717 6.932l1.891 7.06a1 1 0 0 0 1.932-.518l-1.372-5.122L57.586 24.77l-9.477 9.477L43.836 18.3a1 1 0 0 0-1.932.518Zm15.165 9.296-5.3 19.79-3.062-11.428Z" fill="#8fa3cf" class="fill-000000"></path></svg>